<svg xmlns="http://www.w3.org/2000/svg" viewBox="0 0 1200 675" role="img" aria-label="Ilustrasi cuplikan laporan dan keuangan">
  <rect width="1200" height="675" rx="12" fill="#f6f2ea"/>
  <rect x="24" y="20" width="1152" height="40" rx="8" fill="#fff" stroke="#dbc8aa"/>
  <circle cx="48" cy="40" r="6" fill="#ef4444"/><circle cx="72" cy="40" r="6" fill="#f59e0b"/><circle cx="96" cy="40" r="6" fill="#22c55e"/>
  <rect x="24" y="80" width="1152" height="571" rx="10" fill="#fff" stroke="#e5e7eb"/>
  <text x="48" y="124" font-family="system-ui,sans-serif" font-size="20" font-weight="800" fill="#1a150e">Laporan &amp; insight</text>
  <text x="48" y="152" font-family="system-ui,sans-serif" font-size="13" fill="#64748b">Keuangan, nutrisi, dan performa operasional</text>
  <rect x="48" y="180" width="360" height="140" rx="10" fill="#e6efff" stroke="#bfdbfe"/>
  <text x="68" y="214" font-family="system-ui,sans-serif" font-size="13" font-weight="700" fill="#0f52ba">Biaya bulanan</text>
  <text x="68" y="242" font-family="system-ui,sans-serif" font-size="28" font-weight="800" fill="#0f52ba">Rp 12,4 jt</text>
  <rect x="68" y="268" width="200" height="10" rx="2" fill="#0f52ba" opacity="0.2"/>
  <rect x="432" y="180" width="360" height="140" rx="10" fill="#fefce8" stroke="#fde047"/>
  <text x="452" y="214" font-family="system-ui,sans-serif" font-size="13" font-weight="700" fill="#854d0e">Nutri compliance</text>
  <text x="452" y="248" font-family="system-ui,sans-serif" font-size="28" font-weight="800" fill="#b45309">94%</text>
  <rect x="816" y="180" width="360" height="140" rx="10" fill="#f0fdf4" stroke="#86efac"/>
  <text x="836" y="214" font-family="system-ui,sans-serif" font-size="13" font-weight="700" fill="#166534">On-time delivery</text>
  <text x="836" y="248" font-family="system-ui,sans-serif" font-size="28" font-weight="800" fill="#15803d">91%</text>
  <rect x="48" y="340" width="1128" height="280" rx="10" fill="#f8fafc" stroke="#e2e8f0"/>
  <text x="68" y="376" font-family="system-ui,sans-serif" font-size="14" font-weight="600" fill="#334155">Tren laporan</text>
  <path d="M 80 520 L 280 420 L 480 460 L 680 360 L 880 400 L 1080 340" fill="none" stroke="#0f52ba" stroke-width="4" stroke-linecap="round"/>
  <line x1="80" y1="540" x2="1120" y2="540" stroke="#e2e8f0" stroke-width="2"/>
  <rect x="48" y="620" width="1128" height="40" rx="8" fill="#1a150e"/>
  <text x="68" y="646" font-family="system-ui,sans-serif" font-size="12" fill="#c49a2a">Ganti dengan screenshot dashboard laporan / finance / nutrisi</text>
</svg>
